<?xml version="1.0" encoding="UTF-8"?>
<svg id="b" data-name="Layer 3" xmlns="http://www.w3.org/2000/svg" width="456" height="274" viewBox="0 0 456 274">
  <path d="m310.45605,200c-3.81665-.00537-6.96472-3.06885-7.39978-7h56.49304c5.77051-.00879,10.4585-4.91895,10.45068-10.94238v-65.33984c0-.0166-.00226-.03271-.00232-.04932l3.50769,3.67139c1.58545,1.65918,2.49463,3.98438,2.49463,6.37793v65.3418c.00586,4.37207-3.33936,7.93359-7.4541,7.94043h-58.08984Zm-16.45605-17.94238v-13.05762h34.54932c5.77051-.00879,10.4585-4.91895,10.45068-10.94238v-64.05762h6.58252c2.13525,0,4.15967.88867,5.70068,2.50098l13.22217,13.83887c1.58545,1.65918,2.49463,3.98438,2.49463,6.37793v65.3418c.00586,4.37207-3.33936,7.93359-7.4541,7.94043h-58.08984c-4.1167-.00586-7.46143-3.56738-7.45605-7.94043v-.00195Z" fill="#fff"/>
  <path d="m142.25739,182l-28.56842-.00005c-3.14111-.00488-5.69336-2.71094-5.68896-6.0332v-63.93457c-.00439-3.32129,2.54785-6.02734,5.68652-6.03223h35.41895c1.63428,0,3.18408.67676,4.36475,1.90527l10.6123,11.04199c1.21875,1.26855,1.91748,3.04688,1.91748,4.87793v58.17485h-23.74263Z" fill="#fff"/>
  <path d="m382.67432,113.26758l-13.22217-13.83887c-.37109-.38818-.76978-.73438-1.18018-1.06055-.19904-.26953-.40131-.53809-.64014-.78809l-13.1665-13.16602c-2.12256-2.22168-5.63574-3.77246-8.54346-3.77246h-2.01471c-.55493-1.24658-1.29999-2.39795-2.23285-3.37402l-13.22217-13.83887c-2.1123-2.21094-4.90674-3.42871-7.86963-3.42871h-44.13184c-4.74072.00732-8.74487,3.3252-10.02081,7.84814,1.2384-.54297,2.59607-.84619,4.02081-.84814h44.13184c2.96289,0,5.75732,1.21777,7.86963,3.42871l13.22217,13.83887c1.72711,1.80713,2.83868,4.19678,3.19244,6.73242h6.71576c2.96289,0,5.75732,1.21777,7.86963,3.42871l13.22217,13.83887c.68939.72119,1.27167,1.54199,1.75842,2.4209l7.24158,7.5791c2.11377,2.21191,3.32568,5.29199,3.32568,8.4502v65.33985c.00275,2.11133-.58118,4.07959-1.5769,5.75439,4.87671-.93408,8.58386-5.39941,8.5769-10.75439v-65.33984c0-3.1582-1.21191-6.23828-3.32568-8.4502Z" fill="#ffebe7"/>
  <path d="m379,192.05762v-65.33984c0-3.1582-1.21191-6.23828-3.32568-8.4502l-7.24158-7.5791c-.48676-.87891-1.06903-1.69971-1.75842-2.4209l-13.22217-13.83887c-2.1123-2.21094-4.90674-3.42871-7.86963-3.42871h-6.71576c-.35376-2.53564-1.46533-4.92529-3.19244-6.73242l-13.22217-13.83887c-2.1123-2.21094-4.90674-3.42871-7.86963-3.42871h-44.13184c-1.42474.00195-2.78241.30518-4.02081.84814-3.77728,1.65527-6.43573,5.55811-6.42987,10.09424v80.11426c-.00732,6.02637,4.68164,10.93555,10.4541,10.94336h20.5459v13.05664c-.00671,5.52441,3.9364,10.09766,9.03925,10.82959.40173,5.63965,4.91058,10.10645,10.41486,10.11377h58.09521c3.74762-.00586,7.02911-2.08545,8.87378-5.18799.99573-1.6748,1.57965-3.64307,1.5769-5.75439v.00002Zm-68.54395,7.94238c-3.81665-.00537-6.96472-3.06885-7.39978-7h56.49304c5.77051-.00879,10.4585-4.91895,10.45068-10.94238v-65.33984c0-.0166-.00226-.03271-.00232-.04932l3.50769,3.67139c1.58545,1.65918,2.49463,3.98438,2.49463,6.37793v65.3418c.00586,4.37207-3.33936,7.93359-7.4541,7.94043h-58.08984Zm-47.45605-41.94238v-80.11719c-.00586-4.37207,3.33936-7.93359,7.4541-7.94043h44.12842c2.13525,0,4.15967.88867,5.70068,2.50098l13.22217,13.83887c1.58545,1.65918,2.49463,3.98438,2.49463,6.37793v65.3418c.00586,4.37207-3.33936,7.93359-7.4541,7.94043h-58.08984c-4.1167-.00586-7.46143-3.56738-7.45605-7.94043v-.00195Zm31,24v-13.05762h34.54932c5.77051-.00879,10.4585-4.91895,10.45068-10.94238v-64.05762h6.58252c2.13525,0,4.15967.88867,5.70068,2.50098l13.22217,13.83887c1.58545,1.65918,2.49463,3.98438,2.49463,6.37793v65.3418c.00586,4.37207-3.33936,7.93359-7.4541,7.94043h-58.08984c-4.1167-.00586-7.46143-3.56738-7.45605-7.94043v-.00195Z" fill="#f68511"/>
  <path d="m270.45605,166h58.08984c4.11475-.00684,7.45996-3.56836,7.4541-7.94043v-65.3418c0-2.39355-.90918-4.71875-2.49463-6.37793l-13.22217-13.83887c-1.54102-1.6123-3.56543-2.50098-5.70068-2.50098h-44.12842c-4.11475.00684-7.45996,3.56836-7.4541,7.94043v80.11914c-.00537,4.37305,3.33936,7.93457,7.45605,7.94043Zm1.54395-81.5h31c.82861,0,1.5.67188,1.5,1.5s-.67139,1.5-1.5,1.5h-31c-.82861,0-1.5-.67188-1.5-1.5s.67139-1.5,1.5-1.5Zm0,10h49c.82861,0,1.5.67188,1.5,1.5s-.67139,1.5-1.5,1.5h-49c-.82861,0-1.5-.67188-1.5-1.5s.67139-1.5,1.5-1.5Zm0,10h39c.82861,0,1.5.67188,1.5,1.5s-.67139,1.5-1.5,1.5h-39c-.82861,0-1.5-.67188-1.5-1.5s.67139-1.5,1.5-1.5Z" fill="#ffeccc"/>
  <path d="m272,107.5h39c.82861,0,1.5-.67188,1.5-1.5s-.67139-1.5-1.5-1.5h-39c-.82861,0-1.5.67188-1.5,1.5s.67139,1.5,1.5,1.5Z" fill="#f68511"/>
  <path d="m272,97.5h49c.82861,0,1.5-.67188,1.5-1.5s-.67139-1.5-1.5-1.5h-49c-.82861,0-1.5.67188-1.5,1.5s.67139,1.5,1.5,1.5Z" fill="#f68511"/>
  <path d="m272,87.5h31c.82861,0,1.5-.67188,1.5-1.5s-.67139-1.5-1.5-1.5h-31c-.82861,0-1.5.67188-1.5,1.5s.67139,1.5,1.5,1.5Z" fill="#f68511"/>
  <g id="c" data-name="b">
    <path d="m223.89453,56.26172c-.82861,0-1.5-.67188-1.5-1.5v-8.23828c0-.82812.67139-1.5,1.5-1.5s1.5.67188,1.5,1.5v8.23828c0,.82812-.67139,1.5-1.5,1.5Z" fill="#a4f0ff"/>
    <path d="m223.89453,71.08984c-.82861,0-1.5-.67188-1.5-1.5v-8.2373c0-.82812.67139-1.5,1.5-1.5s1.5.67188,1.5,1.5v8.2373c0,.82812-.67139,1.5-1.5,1.5Z" fill="#a4f0ff"/>
    <path d="m235.42822,59.55664h-8.23828c-.82861,0-1.5-.67188-1.5-1.5s.67139-1.5,1.5-1.5h8.23828c.82861,0,1.5.67188,1.5,1.5s-.67139,1.5-1.5,1.5Z" fill="#a4f0ff"/>
    <path d="m220.59961,59.55664h-8.23828c-.82861,0-1.5-.67188-1.5-1.5s.67139-1.5,1.5-1.5h8.23828c.82861,0,1.5.67188,1.5,1.5s-.67139,1.5-1.5,1.5Z" fill="#a4f0ff"/>
  </g>
  <g id="d" data-name="c">
    <path d="m62.72314,199.91895c-.82861,0-1.5-.67188-1.5-1.5v-8.2373c0-.82812.67139-1.5,1.5-1.5s1.5.67188,1.5,1.5v8.2373c0,.82812-.67139,1.5-1.5,1.5Z" fill="#ffbb63"/>
    <path d="m62.72314,214.74805c-.82861,0-1.5-.67188-1.5-1.5v-8.23828c0-.82812.67139-1.5,1.5-1.5s1.5.67188,1.5,1.5v8.23828c0,.82812-.67139,1.5-1.5,1.5Z" fill="#ffbb63"/>
    <path d="m74.25635,203.21484h-8.23779c-.82861,0-1.5-.67188-1.5-1.5s.67139-1.5,1.5-1.5h8.23779c.82861,0,1.5.67188,1.5,1.5s-.67139,1.5-1.5,1.5Z" fill="#ffbb63"/>
    <path d="m59.42773,203.21484h-8.23779c-.82861,0-1.5-.67188-1.5-1.5s.67139-1.5,1.5-1.5h8.23779c.82861,0,1.5.67188,1.5,1.5s-.67139,1.5-1.5,1.5Z" fill="#ffbb63"/>
  </g>
  <g id="e" data-name="d">
    <path d="m420.0874,39.98633h-3.29492c-.82861,0-1.5-.67188-1.5-1.5s.67139-1.5,1.5-1.5h3.29492c.82861,0,1.5.67188,1.5,1.5s-.67139,1.5-1.5,1.5Z" fill="#7cc33f"/>
    <path d="m410.20166,39.98633h-3.29492c-.82861,0-1.5-.67188-1.5-1.5s.67139-1.5,1.5-1.5h3.29492c.82861,0,1.5.67188,1.5,1.5s-.67139,1.5-1.5,1.5Z" fill="#7cc33f"/>
    <path d="m413.49707,46.57715c-.82861,0-1.5-.67188-1.5-1.5v-3.29492c0-.82812.67139-1.5,1.5-1.5s1.5.67188,1.5,1.5v3.29492c0,.82812-.67139,1.5-1.5,1.5Z" fill="#7cc33f"/>
    <path d="m413.49707,36.69141c-.82861,0-1.5-.67188-1.5-1.5v-3.29492c0-.82812.67139-1.5,1.5-1.5s1.5.67188,1.5,1.5v3.29492c0,.82812-.67139,1.5-1.5,1.5Z" fill="#7cc33f"/>
  </g>
  <g id="f" data-name="e">
    <path d="m268.45117,241.74219h-6.59033c-.82861,0-1.5-.67188-1.5-1.5s.67139-1.5,1.5-1.5h6.59033c.82861,0,1.5.67188,1.5,1.5s-.67139,1.5-1.5,1.5Z" fill="#f8d904"/>
    <path d="m255.27051,241.74219h-6.59082c-.82861,0-1.5-.67188-1.5-1.5s.67139-1.5,1.5-1.5h6.59082c.82861,0,1.5.67188,1.5,1.5s-.67139,1.5-1.5,1.5Z" fill="#f8d904"/>
    <path d="m258.56543,251.62793c-.82861,0-1.5-.67188-1.5-1.5v-6.59082c0-.82812.67139-1.5,1.5-1.5s1.5.67188,1.5,1.5v6.59082c0,.82812-.67139,1.5-1.5,1.5Z" fill="#f8d904"/>
    <path d="m258.56543,238.44727c-.82861,0-1.5-.67188-1.5-1.5v-6.59082c0-.82812.67139-1.5,1.5-1.5s1.5.67188,1.5,1.5v6.59082c0,.82812-.67139,1.5-1.5,1.5Z" fill="#f8d904"/>
  </g>
  <g id="g" data-name="f">
    <path d="m411.19971,215.26562c-.82861,0-1.5-.67188-1.5-1.5v-3.29492c0-.82812.67139-1.5,1.5-1.5s1.5.67188,1.5,1.5v3.29492c0,.82812-.67139,1.5-1.5,1.5Z" fill="#e0f2ff"/>
    <path d="m411.19971,225.15137c-.82861,0-1.5-.67188-1.5-1.5v-3.29492c0-.82812.67139-1.5,1.5-1.5s1.5.67188,1.5,1.5v3.29492c0,.82812-.67139,1.5-1.5,1.5Z" fill="#e0f2ff"/>
    <path d="m417.79004,218.56152h-3.29541c-.82861,0-1.5-.67188-1.5-1.5s.67139-1.5,1.5-1.5h3.29541c.82861,0,1.5.67188,1.5,1.5s-.67139,1.5-1.5,1.5Z" fill="#e0f2ff"/>
    <path d="m407.9043,218.56152h-3.29541c-.82861,0-1.5-.67188-1.5-1.5s.67139-1.5,1.5-1.5h3.29541c.82861,0,1.5.67188,1.5,1.5s-.67139,1.5-1.5,1.5Z" fill="#e0f2ff"/>
  </g>
  <g id="h" data-name="g">
    <path d="m252.81104,32.8623c-.82861,0-1.5-.67188-1.5-1.5v-3.29492c0-.82812.67139-1.5,1.5-1.5s1.5.67188,1.5,1.5v3.29492c0,.82812-.67139,1.5-1.5,1.5Z" fill="#e6d0ff"/>
    <path d="m252.81104,42.74805c-.82861,0-1.5-.67188-1.5-1.5v-3.29492c0-.82812.67139-1.5,1.5-1.5s1.5.67188,1.5,1.5v3.29492c0,.82812-.67139,1.5-1.5,1.5Z" fill="#e6d0ff"/>
    <path d="m259.40186,36.15723h-3.29541c-.82861,0-1.5-.67188-1.5-1.5s.67139-1.5,1.5-1.5h3.29541c.82861,0,1.5.67188,1.5,1.5s-.67139,1.5-1.5,1.5Z" fill="#e6d0ff"/>
    <path d="m249.51611,36.15723h-3.29541c-.82861,0-1.5-.67188-1.5-1.5s.67139-1.5,1.5-1.5h3.29541c.82861,0,1.5.67188,1.5,1.5s-.67139,1.5-1.5,1.5Z" fill="#e6d0ff"/>
  </g>
  <g id="i" data-name="h">
    <path d="m40.94043,37.57812c-.82861,0-1.5-.67188-1.5-1.5v-3.29492c0-.82812.67139-1.5,1.5-1.5s1.5.67188,1.5,1.5v3.29492c0,.82812-.67139,1.5-1.5,1.5Z" fill="#cdfcbf"/>
    <path d="m40.94043,47.46387c-.82861,0-1.5-.67188-1.5-1.5v-3.29492c0-.82812.67139-1.5,1.5-1.5s1.5.67188,1.5,1.5v3.29492c0,.82812-.67139,1.5-1.5,1.5Z" fill="#cdfcbf"/>
    <path d="m47.53076,40.87402h-3.29541c-.82861,0-1.5-.67188-1.5-1.5s.67139-1.5,1.5-1.5h3.29541c.82861,0,1.5.67188,1.5,1.5s-.67139,1.5-1.5,1.5Z" fill="#cdfcbf"/>
    <path d="m37.64502,40.87402h-3.29541c-.82861,0-1.5-.67188-1.5-1.5s.67139-1.5,1.5-1.5h3.29541c.82861,0,1.5.67188,1.5,1.5s-.67139,1.5-1.5,1.5Z" fill="#cdfcbf"/>
  </g>
  <path d="m346.64557,185.6123c-.23944,0-.23944-.10223-.23944-.27353v-2.29047c0-.20538,0-.30762.13678-.41077,1.47034-1.1282,3.76126-2.83752,5.67599-4.65002,3.45322-3.14514,4.03433-5.12894,4.03433-6.87234,0-2.22232-1.16272-3.76128-4.03433-3.76128-2.12009,0-3.55591.61613-5.02625,1.40173-.17084.10315-.27353.03407-.27353-.13631v-3.14606c0-.17038.03409-.27353.17084-.37576,1.74387-.92282,3.72675-1.46988,6.01767-1.46988,5.02625,0,7.35126,3.28236,7.35126,6.94049,0,2.564-.92328,5.09485-3.86349,7.89832-1.77841,1.7775-3.04337,2.76938-4.24017,3.6922,1.2995-.10223,2.599-.10223,5.02625-.10223h3.93213c.23944,0,.30762.06815.27353.23946l-.7179,3.077c-.0686.1713-.13678.23946-.34213.23946h-13.88153Z" fill="#f68511"/>
  <path d="m322.44464,159.25078c-.20493,0-.27353-.06815-.27353-.23946v-17.19833c-.99142.54706-2.63263,1.06004-3.58997,1.23135-.20538.03407-.27353,0-.27353-.20538v-2.90662c0-.17038.03409-.23946.20493-.27353,1.60712-.40984,3.45367-1.19635,4.75272-2.05103.13678-.10315.34213-.13724.51297-.13724h2.3591c.13678,0,.17084.06908.17084.23946v21.3013c0,.1713-.06815.23946-.20493.23946h-3.6586v.00002Z" fill="#f68511"/>
  <path d="m88,99.03223v63.93457c-.00439,3.32227,2.54785,6.02832,5.68896,6.0332h11.31104v-56.96582c-.00635-4.97363,3.88916-9.02734,8.68359-9.03418h27.56635l-7.77972-8.09473c-1.18066-1.22852-2.73047-1.90527-4.36475-1.90527h-35.41895c-3.13867.00488-5.69092,2.71094-5.68652,6.03223Z" fill="none"/>
  <path d="m73.68896,154h11.31104v-54.96582c-.00635-4.97363,3.88916-9.02734,8.68359-9.03418h29.48853l-9.7019-10.09473c-1.18066-1.22852-2.73047-1.90527-4.36475-1.90527h-35.41895c-3.13867.00488-5.69092,2.71094-5.68652,6.03223v63.93457c-.00439,3.32227,2.54785,6.02832,5.68896,6.0332Z" fill="none"/>
  <path d="m164.08252,118.94727l-10.6123-11.04199c-1.18066-1.22852-2.73047-1.90527-4.36475-1.90527h-35.41895c-3.13867.00488-5.69092,2.71094-5.68652,6.03223v63.93456c-.00439,3.32227,2.54785,6.02832,5.68896,6.0332h28.56843v-8.45361c0-4.28955,3.47754-7.76709,7.76733-7.76709h15.97528v-41.9541c0-1.83105-.69873-3.60938-1.91748-4.87792Zm-8.07172,23.65723c-.3382.88867-1.26624,1.94336-3.74866,1.94336-1.80713,0-5.41235-.52588-9.46704-3.99805-1.48383.25879-3.05786.60547-4.68567,1.0293-1.48444.38477-2.97601.82715-4.43597,1.31445-2.56964,4.47803-6.38879,9.68115-10.21875,9.68115-.94635.02832-1.86969-.29492-2.5918-.90723-.72253-.62354-1.05475-1.58691-.87006-2.52344.60535-3.16748,6.9649-6.03418,9.95586-7.2168.99902-1.77637,1.89801-3.60742,2.69275-5.48438.92865-2.18604,1.6864-4.1626,2.38135-6.18994-1.99713-4.41455-2.49731-8.75293-1.24652-10.85986.52301-.86133,1.44818-1.39746,2.45544-1.42285,2.93298,0,3.9776,2.76807,3.9776,5.35645,0,2.10742-.57373,4.95167-1.70911,8.4546.58679,1.01172,1.22839,1.99023,1.92181,2.93213.9173,1.26172,1.94543,2.43945,3.07227,3.51855,1.76404-.28564,3.54712-.4375,5.33405-.45459,3.22046,0,5.44226.62256,6.604,1.84521l-.00183.00049c.7323.80908.95575,1.95703.58026,2.98145l.00002-.00002Z" fill="none"/>
  <path d="m113.68652,185c-4.79736-.00684-8.69287-4.06055-8.68652-9.03613v-3.96387h-11.31348c-4.79736-.00684-8.69287-4.06055-8.68652-9.03613v-5.96387h-11.31348c-4.79736-.00684-8.69287-4.06055-8.68652-9.03613v-63.92969c-.00159-1.22363.23529-2.39014.66132-3.45605-3.30469,1.2832-5.66626,4.58643-5.66132,8.45605v63.92969c-.00635,4.97559,3.88916,9.0293,8.68652,9.03613h10.31348v5.96387c-.00635,4.97559,3.88916,9.0293,8.68652,9.03613h12.31348v3.96387c-.00635,4.97559,3.88916,9.0293,8.68652,9.03613h33.57086v-5h-28.57086Z" fill="#ffebe7"/>
  <path d="m151.3371,139.29102c-.86646-.14551-1.74438-.21191-2.62286-.19775-1.31726.00293-2.63251.10254-3.93512.29834,1.55957,1.25732,3.37463,2.15869,5.31854,2.6416.27393.06641.55475.10107.83667.10205.99493,0,1.72162-.4458,1.85669-1.13525h.00177c.22174-1.12158-.66809-1.54834-1.45569-1.70898Z" fill="#fff"/>
  <path d="m137.32599,121.77441c0-.91992-.20142-2.01758-1.13007-2.01758-.35748.01758-.67938.22168-.84741.5376l.00006-.00049c-.57849.97217-.79602,3.80908.7619,7.85792.68353-2.06348,1.09222-4.20752,1.21552-6.37745Z" fill="#fff"/>
  <path d="m121.7832,149.21436c-.01105.0625-.01581.12549-.01416.18896.01331.52002.44556.93066.96558.91748,1.41089,0,3.82452-2.44678,6.27466-6.3208h-.00116c-4.164,1.82666-6.95776,3.82715-7.22491,5.21436Z" fill="#fff"/>
  <path d="m137.57214,134.45654c-.38959,1.04492-.81329,2.1123-1.26392,3.18018-.34119.80713-.73383,1.65723-1.16168,2.51465.80438-.24023,1.60931-.46484,2.40112-.6709,1.10315-.28564,2.19073-.5376,3.24432-.75391l.08606-.01953c-.80139-.86328-1.55243-1.77148-2.24933-2.7207-.36157-.49219-.71533-1.00391-1.05658-1.52979Z" fill="#fff"/>
  <path d="m65,147.96387c-.00635,4.97559,3.88916,9.0293,8.68652,9.03613h11.31348v5.96387c-.00635,4.97559,3.88916,9.0293,8.68652,9.03613h11.31348v3.96387c-.00635,4.97559,3.88916,9.0293,8.68652,9.03613h28.57086v-3h-28.56842c-3.14111-.00488-5.69336-2.71094-5.68896-6.0332v-63.93457c-.00439-3.32129,2.54785-6.02734,5.68652-6.03223h35.41895c1.63428,0,3.18408.67676,4.36475,1.90527l10.6123,11.04199c1.21875,1.26855,1.91748,3.04688,1.91748,4.87793v41.9541h3v-41.9541c0-2.59863-1.00391-5.13477-2.75439-6.95605l-10.6123-11.04199c-1.75146-1.82324-4.06982-2.82715-6.52783-2.82715h-3.69519l-9.77698-10.17285c-1.75146-1.82324-4.06982-2.82715-6.52783-2.82715h-1.94489c-.2793-.39795-.57874-.78125-.91498-1.13086l-10.6123-11.04199c-1.75146-1.82324-4.06982-2.82715-6.52783-2.82715h-35.42188c-3.61493.00488-6.71655,2.31201-8.02228,5.57812-.42603,1.06592-.6629,2.23242-.66132,3.45605,0,0,0,63.9297,0,63.9297Zm64.10547-54.96387c1.63428,0,3.18408.67676,4.36475,1.90527l7.77972,8.09473h-27.56635c-4.79443.00684-8.68994,4.06055-8.68359,9.03418v56.96582h-11.31104c-3.14111-.00488-5.69336-2.71094-5.68896-6.0332v-63.93457c-.00439-3.32129,2.54785-6.02734,5.68652-6.03223h35.41895Zm-61.10547,54.96484v-63.93262c-.00439-3.32129,2.54785-6.02734,5.68652-6.03223h35.41895c1.63428,0,3.18408.67676,4.36475,1.90527l9.7019,10.09473h-29.48853c-4.79443.00684-8.68994,4.06055-8.68359,9.03418v54.96582h-11.31104c-3.14111-.00488-5.69336-2.71094-5.68896-6.0332v-.00195h.00002Z" fill="#cacaca"/>
  <path d="m155.43237,139.62256c-1.16174-1.22266-3.38354-1.84521-6.604-1.84521-1.78693.01709-3.57001.16895-5.33405.45459-1.12683-1.0791-2.15497-2.25684-3.07227-3.51855-.69342-.94189-1.33502-1.92041-1.92181-2.93213,1.13538-3.50293,1.70911-6.34717,1.70911-8.45459,0-2.58838-1.04462-5.35645-3.9776-5.35645-1.00726.02539-1.93243.56152-2.45544,1.42285-1.25079,2.10693-.75061,6.44531,1.24652,10.85986-.69495,2.02734-1.4527,4.00391-2.38135,6.18994-.79474,1.87695-1.69373,3.70801-2.69275,5.48438-2.99097,1.18262-9.35052,4.04932-9.95587,7.2168-.18469.93652.14752,1.8999.87006,2.52344.72211.6123,1.64545.93555,2.5918.90723,3.82996,0,7.64912-5.20312,10.21874-9.68115,1.45996-.4873,2.95154-.92969,4.43597-1.31445,1.62781-.42383,3.20184-.77051,4.68567-1.0293,4.05469,3.47217,7.65991,3.99805,9.46704,3.99805,2.48242,0,3.41046-1.05469,3.74866-1.94336.37549-1.02441.15204-2.17236-.58026-2.98145l.00183-.00049v.00002Zm-32.69775,10.69824c-.52002.01318-.95227-.39746-.96558-.91748-.00165-.06348.00311-.12646.01416-.18896.26715-1.38721,3.06091-3.3877,7.22491-5.21436h.00116c-2.45013,3.87402-4.86377,6.3208-6.27466,6.3208Zm12.61395-30.02686l-.00006.00049c.16803-.31592.48993-.52002.84741-.5376.92865,0,1.13007,1.09766,1.13007,2.01758-.12329,2.16992-.53198,4.31396-1.21552,6.37744-1.55792-4.04883-1.34039-6.88574-.7619-7.85791Zm5.44342,18.43262c-1.05359.21631-2.14117.46826-3.24432.75391-.79181.20605-1.59674.43066-2.40112.6709.42786-.85742.8205-1.70752,1.16168-2.51465.45062-1.06787.87433-2.13525,1.26392-3.18018.34125.52588.69501,1.0376,1.05658,1.52979.6969.94922,1.44794,1.85742,2.24933,2.7207l-.08606.01953Zm12.00079,2.27344h-.00177c-.13507.68945-.86176,1.13525-1.85669,1.13525-.28192-.00098-.56274-.03564-.83667-.10205-1.94391-.48291-3.75897-1.38428-5.31854-2.6416,1.30261-.1958,2.61786-.29541,3.93512-.29834.87848-.01416,1.75641.05225,2.62286.19775.7876.16064,1.67743.5874,1.45569,1.70898Z" fill="#fa0f00"/>
  <path d="m170.73767,165.7793h-20.71295c-4.28979,0-7.76733,3.47754-7.76733,7.76709v20.71289c0,4.29004,3.47754,7.76758,7.76733,7.76758h20.71295c4.28979,0,7.76733-3.47754,7.76733-7.76758v-20.71289c0-4.28955-3.47754-7.76709-7.76733-7.76709Zm-2.15332,16.38916c0,.13477-.06744.16797-.20184.16797h-3.23199l-.74115,3.3667h2.25562c.1684,0,.20245.03418.20245.20215v2.49121c0,.13525-.10089.16797-.20245.16797h-2.8277l-1.17828,5.15186c-.0675.16797-.0675.23486-.2359.23486h-2.12061c-.16846,0-.26996-.06689-.20251-.23486l1.14484-5.15186h-3.0636l-1.21234,5.21875c-.03339.10107-.06683.16797-.20184.16797h-2.15466c-.1684,0-.23529-.03271-.20184-.20215l1.21167-5.18457h-2.59241c-.13434,0-.20184-.03271-.20184-.23486v-2.42432c0-.16797.0675-.20215.20184-.20215h3.19861l.77454-3.3667h-2.35712c-.10095,0-.16779,0-.16779-.13379v-2.55957c0-.10107.03339-.13379.16779-.13379h2.9967l1.04395-4.64648c.03345-.16895.10089-.20166.26868-.20166h2.12128c.13501,0,.20184.06689.1684.23438l-1.04388,4.61377h3.0636l1.04388-4.68018c.03345-.13525.0675-.16797.16846-.16797h2.18811c.13495,0,.20245.06689.1684.20166l-1.07733,4.64648h2.55902c.1684,0,.26929.03271.26929.20166v2.45752Z" fill="#e0f2ff"/>
  <polygon points="162.62494 182.33643 159.52789 182.33643 158.78735 185.70312 161.85101 185.70312 162.62494 182.33643" fill="#e0f2ff"/>
  <path d="m168.31506,179.50928h-2.55902l1.07733-4.64648c.03406-.13477-.03345-.20166-.1684-.20166h-2.18811c-.10095,0-.13501.03271-.16846.16797l-1.04388,4.68018h-3.0636l1.04388-4.61377c.03345-.16748-.03339-.23438-.1684-.23438h-2.12128c-.16779,0-.23523.03271-.26868.20166l-1.04395,4.64648h-2.9967c-.1344,0-.16779.03271-.16779.13379v2.55957c0,.13379.06683.13379.16779.13379h2.35712l-.77454,3.3667h-3.19861c-.13434,0-.20184.03418-.20184.20215v2.42432c0,.20215.0675.23486.20184.23486h2.59241l-1.21167,5.18457c-.03345.16943.03345.20215.20184.20215h2.15466c.13501,0,.16846-.06689.20184-.16797l1.21234-5.21875h3.0636l-1.14484,5.15186c-.06744.16797.03406.23486.20251.23486h2.12061c.1684,0,.1684-.06689.2359-.23486l1.17828-5.15186h2.8277c.10156,0,.20245-.03271.20245-.16797v-2.49121c0-.16797-.03406-.20215-.20245-.20215h-2.25562l.74115-3.3667h3.23199c.1344,0,.20184-.0332.20184-.16797v-2.45752c0-.16895-.10089-.20166-.26929-.20166Zm-8.78717,2.82715h3.09705l-.77393,3.3667h-3.06366l.74054-3.3667Z" fill="#3892f3"/>
  <path d="m232.02002,127.24902c-.58447-.58594-1.53418-.58984-2.12158-.00391-.58691.58398-.58887,1.53418-.00439,2.12109l6.87445,6.90332h-42.83539c-.82861,0-1.5.67188-1.5,1.5s.67139,1.5,1.5,1.5h42.83539l-6.87445,6.90332c-.58447.58691-.58252,1.53711.00439,2.12109.29297.29199.67578.4375,1.05859.4375.38477,0,.77002-.14746,1.06299-.44141l9.42188-9.46191c.58252-.58594.58252-1.53125,0-2.11719l-9.42188-9.46191Z" fill="#cacaca"/>
  <path d="m73.68896,154h11.31104v-54.96582c-.00635-4.97363,3.88916-9.02734,8.68359-9.03418h29.48853l-9.7019-10.09473c-1.18066-1.22852-2.73047-1.90527-4.36475-1.90527h-35.41895c-3.13867.00488-5.69092,2.71094-5.68652,6.03223v63.93457c-.00439,3.32227,2.54785,6.02832,5.68896,6.0332Z" fill="#fff"/>
  <path d="m129.10547,93c1.63428,0,3.18408.67676,4.36475,1.90527l7.77972,8.09473h-27.56635c-4.79443.00684-8.68994,4.06055-8.68359,9.03418v56.96582h-11.31104c-3.14111-.00488-5.69336-2.71094-5.68896-6.0332v-63.93457c-.00439-3.32129,2.54785-6.02734,5.68652-6.03223h35.41895Z" fill="#fff"/>
</svg>